<?xml version="1.0" encoding="utf-8"?>
<!-- Generator: Adobe Illustrator 22.0.0, SVG Export Plug-In . SVG Version: 6.00 Build 0)  -->
<svg version="1.1" xmlns="http://www.w3.org/2000/svg" x="0px" y="0px"
	 viewBox="0 0 1024 1024" width="100%" height="100%">
<style type="text/css">
	.st0{display:none;}
	.st1{display:inline;stroke:#FFFFFF;stroke-miterlimit:10;}
	.st2{display:inline;fill:none;stroke:#FFFFFF;stroke-width:25;}
	.st3{display:inline;fill:#FFFFFF;}
	.st4{fill:none;stroke:#FFFFFF;stroke-width:44;}
	.st5{fill:none;stroke:#FFFFFF;stroke-width:50;}
	.st6{fill:#FFFFFF;stroke-width:50;}
</style>
<g id="图层_2" class="st0" transform="translate(0, 200)">
	<path class="st1" d="M1113.9,1074.9H-38.2c-6.6,0-12-5.4-12-12V-38.2c0-6.6,5.4-12,12-12h1152.1c6.6,0,12,5.4,12,12v1101.1
		C1125.9,1069.5,1120.5,1074.9,1113.9,1074.9z"/>
</g>
<g id="图层_1" class="st0" transform="translate(0, 200)">
	<path id="圆角矩形_1" class="st2" d="M299,248h427c14.9,0,27,12.1,27,27l0,0v225c0,14.9-12.1,27-27,27l0,0H299
		c-14.9,0-27-12.1-27-27l0,0V275C272,260.1,284.1,248,299,248L299,248z"/>
	<path id="矩形_1" class="st3" d="M368,558h284c2.8,0,5,2.2,5,5v73c0,2.8-2.2,5-5,5H368c-2.8,0-5-2.2-5-5v-73
		C363,560.2,365.2,558,368,558z"/>
	<path id="圆角矩形_2" class="st3" d="M281.5,622h12c5.2,0,9.5,4.3,9.5,9.5l0,0c0,5.2-4.3,9.5-9.5,9.5h-12
		c-5.2,0-9.5-4.3-9.5-9.5l0,0C272,626.3,276.3,622,281.5,622z"/>
	<path id="圆角矩形_2_1_" class="st3" d="M731.5,622h12c5.2,0,9.5,4.3,9.5,9.5l0,0c0,5.2-4.3,9.5-9.5,9.5h-12
		c-5.2,0-9.5-4.3-9.5-9.5l0,0C722,626.3,726.3,622,731.5,622z"/>
	<path id="圆角矩形_2_拷贝_2" class="st3" d="M327.5,622h370c5.2,0,9.5,4.3,9.5,9.5l0,0c0,5.2-4.3,9.5-9.5,9.5h-370
		c-5.2,0-9.5-4.3-9.5-9.5l0,0C318,626.3,322.3,622,327.5,622z"/>
</g>
<g id="图层_4" transform="translate(0, 200)">
	<path class="st4" d="M512.5,227.3H286.6c-15.8,0-28.6,13-28.6,29V498c0,16,12.8,29,28.6,29h105.8"/>
	<path class="st5" d="M512.5,248"/>
	<line class="st6" x1="512.5" y1="302" x2="512.5" y2="178"/>
	<path class="st6" d="M388.1,558h-17.8c-2.8,0-5,2.2-5,5v59h14.2C378.4,594.9,382.3,573.9,388.1,558z"/>
	<path class="st6" d="M277.5,622h-12c-5.2,0-9.5,4.3-9.5,9.5s4.3,9.5,9.5,9.5h12c5.2,0,9.5-4.3,9.5-9.5S282.7,622,277.5,622z"/>
	<path class="st6" d="M347,636v-14h-35.5c-5.2,0-9.5,4.3-9.5,9.5s4.3,9.5,9.5,9.5H352C349.2,641,347,638.8,347,636z"/>
	<path class="st6" d="M379.5,622h-14.2v14c0,2.8,2.2,5,5,5h10.8c-0.1-1-0.3-2-0.4-3C380.1,632.4,379.7,627.1,379.5,622z"/>
	<path class="st6" d="M512.5,199"/>
	<path id="猫_3_" class="st6" d="M386.4,517.3c10.8-24.3,25.3-34,35-47.2c-16.3-19.5-24.7-42-25-67.5c-0.1-17.5,4.7-33.5,14.5-48
		c0.2-11.7,0.2-23.3,0-35c0.5-14.9,5.8-29.5,14.3-41.6c1.9-1,2.2-0.8,4.3-0.5c10.4,10,22,20.5,33,30.1c15.7-7.1,38.4-6,38.3-4.9
		c0,1.1-0.2,0.6-0.4,6.8c-9.5,0.2-7.5,0.1-16.9,1.6c-22.9,4.3-41.6,15.5-56,33.5c0.8-3,2.3-5.7,4.5-8c7.6-8,16.1-14.8,25.5-20.5
		c-9.9-8.9-19.4-18-28.5-27.5c-3.1,4.9-5.1,10.2-6,16c-2.1,16.9-3.1,33.9-3,51c-13.7,24-16.7,49.4-9,76c3.1,10.3,8.3,19.3,15.5,27
		c2.1,2.1,3.8,4.4,5,7c0.9,2.3,1.1,4.6,0.5,7c-9.9,13.8-37.4,48.5-39.5,65.4"/>
	<path id="猫_2_" class="st6" d="M375.9,536.8"/>
	<path class="st6" d="M375.2,641h-24.8c-1.9,0-3.5-1.6-3.5-3.5v-76c0-1.9,1.6-3.5,3.5-3.5h24.8c1.9,0,3.5,1.6,3.5,3.5v76
		C378.7,639.4,377.1,641,375.2,641z"/>
</g>
<g id="图层_5" transform="translate(0, 200)">
	<path class="st4" d="M488.6,227.3h225.9c15.8,0,28.6,13,28.6,29V498c0,16-12.8,29-28.6,29H608.7"/>
	<path class="st5" d="M488.6,248"/>
	<line class="st6" x1="488.6" y1="302" x2="488.6" y2="178"/>
	<path class="st6" d="M613.1,558h17.8c2.8,0,5,2.2,5,5v59h-14.2C622.7,594.9,618.8,573.9,613.1,558z"/>
	<path class="st6" d="M723.6,622h12c5.2,0,9.5,4.3,9.5,9.5s-4.3,9.5-9.5,9.5h-12c-5.2,0-9.5-4.3-9.5-9.5S718.4,622,723.6,622z"/>
	<path class="st6" d="M654.1,636v-14h35.5c5.2,0,9.5,4.3,9.5,9.5s-4.3,9.5-9.5,9.5h-40.5C651.9,641,654.1,638.8,654.1,636z"/>
	<path class="st6" d="M621.6,622h14.2v14c0,2.8-2.2,5-5,5H620c0.1-1,0.3-2,0.4-3C621,632.4,621.4,627.1,621.6,622z"/>
	<path class="st6" d="M488.6,199"/>
	<path id="猫_4_" class="st6" d="M608,538.3c-2.1-16.9-29.6-51.6-39.5-65.4c-0.6-2.4-0.4-4.7,0.5-7c1.2-2.6,2.9-4.9,5-7
		c7.2-7.7,12.4-16.7,15.5-27c7.7-26.6,4.7-52-9-76c0.1-17.1-0.9-34.1-3-51c-0.9-5.8-2.9-11.1-6-16c-9.1,9.5-18.6,18.6-28.5,27.5
		c9.4,5.7,17.9,12.5,25.5,20.5c2.2,2.3,3.7,5,4.5,8c-14.4-18-33.1-29.2-56-33.5c-9.4-1.5-19-1.6-28.5-1.8c-0.2-6.2-0.6-6.2-0.6-7.3
		c0-1.1,34.4-1.5,50.1,5.6c10.9-9.6,22.6-20.1,33-30.1c2.1-0.3,2.3-0.5,4.3,0.5c8.5,12.1,13.7,26.7,14.3,41.6
		c-0.2,11.7-0.2,23.3,0,35c9.8,14.5,14.6,30.5,14.5,48c-0.3,25.5-8.7,48-25,67.5c9.7,13.2,24.2,22.9,35,47.2"/>
	<path id="猫_1_" class="st6" d="M625.2,536.8"/>
	<path class="st6" d="M626,641h24.8c1.9,0,3.5-1.6,3.5-3.5v-76c0-1.9-1.6-3.5-3.5-3.5H626c-1.9,0-3.5,1.6-3.5,3.5v76
		C622.5,639.4,624,641,626,641z"/>
</g>
</svg>
